<?xml version="1.0" encoding="utf-8"?>
<!-- Generator: Adobe Illustrator 23.0.4, SVG Export Plug-In . SVG Version: 6.00 Build 0)  -->
<!DOCTYPE svg PUBLIC "-//W3C//DTD SVG 1.1//EN" "http://www.w3.org/Graphics/SVG/1.1/DTD/svg11.dtd" [
	<!ENTITY ns_extend "http://ns.adobe.com/Extensibility/1.0/">
	<!ENTITY ns_ai "http://ns.adobe.com/AdobeIllustrator/10.0/">
	<!ENTITY ns_graphs "http://ns.adobe.com/Graphs/1.0/">
	<!ENTITY ns_vars "http://ns.adobe.com/Variables/1.0/">
	<!ENTITY ns_imrep "http://ns.adobe.com/ImageReplacement/1.0/">
	<!ENTITY ns_sfw "http://ns.adobe.com/SaveForWeb/1.0/">
	<!ENTITY ns_custom "http://ns.adobe.com/GenericCustomNamespace/1.0/">
	<!ENTITY ns_adobe_xpath "http://ns.adobe.com/XPath/1.0/">
]>
<svg version="1.1" id="ÉåÉCÉÑÅ_x5B__x5F_1" xmlns:x="&ns_extend;" xmlns:i="&ns_ai;" xmlns:graph="&ns_graphs;"
	 xmlns="http://www.w3.org/2000/svg" xmlns:xlink="http://www.w3.org/1999/xlink" x="0px" y="0px" viewBox="0 0 135.1 165.1"
	 enable-background="new 0 0 135.1 165.1" xml:space="preserve">
<metadata>
	<sfw  xmlns="&ns_sfw;">
		<slices></slices>
		<sliceSourceBounds  bottomLeftOrigin="true" height="165.1" width="135.1" x="230.2" y="-502.4"></sliceSourceBounds>
	</sfw>
</metadata>
<g>
	<g>
		<polyline fill="#FDCDA1" points="28.3,133.6 25.5,158.7 29.6,160.9 39.5,141 		"/>
	</g>
	<g>
		<polyline fill="#FDCDA1" points="50.5,138.4 64.4,159.5 69,158.5 63.8,136.8 		"/>
	</g>
	<path fill="#FEA621" d="M57.8,150.7l9.5-2.3l2.4,7.2c0,0,3.5,6.1-1.7,7.5c-5.2,1.3-11.9,3.6-11.5-1.5c0.3-5.2,6-3.2,6-3.2
		L57.8,150.7z"/>
	<path fill="#FEA621" d="M25.5,148.5l8.8,4.3l-3.2,8.4c0,0-0.8,5.7-5.6,3.3c-4.9-2.3-11.4-4.8-7.9-8.6c3.5-3.8,6.7,1.3,6.7,1.3
		L25.5,148.5z"/>
	<path fill="#FEA621" d="M31.4,90.5c0,0-14.4,14.5-8.6,20.6c4.6,4.8,9.8,0.9,9.8,0.9"/>
	<g>
		<path fill="#FEA621" d="M45,143.6c7.2-0.3,15.8-1.2,25.5-3.5c0,0-7.6-36.8-16.2-53.5l-22.3,3.1c0,0-10.6,29.2-11.8,51.8
			c0,0,8.2,2.4,22.1,2.2l1.2-3.1L45,143.6z"/>
	</g>
	<path fill="#FF8000" d="M43.2,110.4c0,1.1-0.9,1.9-1.9,1.9c-1.1,0-1.9-0.9-1.9-1.9s0.9-1.9,1.9-1.9
		C42.3,108.5,43.2,109.3,43.2,110.4z"/>
	<polyline fill="#FF8000" points="46.4,89.8 42,104 45.6,100.4 49.6,102.8 52.4,87 	"/>
	<path fill="#FEA621" d="M55.2,89.1c0,0,6.2,3.4,6.3,13.4c0.1,10-1.1,10.6-6.5,10.4c-5.4-0.2-14.5-5.7-14.5-5.7l2.8-5.2l9.8,0.9
		l0.3-2.8"/>
	<path fill="#FF8000" d="M53,103.1C53,103.1,53,103.1,53,103.1c-0.2,0-0.3-0.1-0.2-0.3l0.3-2.8c0-0.1,0.1-0.2,0.3-0.2
		c0.1,0,0.2,0.1,0.2,0.3l-0.3,2.8C53.2,103,53.1,103.1,53,103.1z"/>
	<path fill="#FF8000" d="M55.6,113.1c-0.2,0-0.4,0-0.6,0c-5.4-0.2-14.3-5.5-14.6-5.7c-0.1-0.1-0.2-0.2-0.1-0.3
		c0.1-0.1,0.2-0.2,0.3-0.1c0.1,0.1,9.1,5.5,14.4,5.6c3.7,0.1,5-0.7,6-6.1c0-0.1,0.2-0.2,0.3-0.2c0.1,0,0.2,0.2,0.2,0.3
		C60.4,112,59,113.1,55.6,113.1z"/>
	<g>
		<path fill="#FF8000" d="M43.4,118.6c0,1.1-0.9,1.9-1.9,1.9c-1.1,0-1.9-0.9-1.9-1.9s0.9-1.9,1.9-1.9
			C42.6,116.7,43.4,117.6,43.4,118.6z"/>
		<path fill="#FF8000" d="M43.5,127c0,1.1-0.9,1.9-1.9,1.9c-1.1,0-1.9-0.9-1.9-1.9c0-1.1,0.9-1.9,1.9-1.9
			C42.6,125.1,43.5,126,43.5,127z"/>
		<path fill="#FF8000" d="M43.7,135.6c0,1.1-0.9,1.9-1.9,1.9c-1.1,0-1.9-0.9-1.9-1.9c0-1.1,0.9-1.9,1.9-1.9
			C42.8,133.7,43.7,134.6,43.7,135.6z"/>
	</g>
	<g>
		<polyline fill="#FF8000" points="37.8,89.8 42.2,104 38.6,100.4 34.6,102.8 31.8,87 		"/>
		<polyline fill="#FFFFFF" points="36.3,89.1 42,104 48.2,89.5 		"/>
	</g>
	<g>
		<g>
			<path fill="#7C411E" d="M21.3,74.3c0,0-10-2.5-13,7.2c-3,9.7-1.9,12.9-8.3,12.7c0,0,11.4,5.3,19.6-3.6
				C30,79.1,21.3,74.3,21.3,74.3z"/>
			<path fill="#7C411E" d="M62.4,74.3c0,0,10-2.5,13,7.2c3,9.7,1.9,12.9,8.3,12.7c0,0-11.4,5.3-19.6-3.6
				C53.6,79.1,62.4,74.3,62.4,74.3z"/>
			<g>
				<path fill="#F0047F" d="M12.9,73c-0.1,1.6,1.1,3,2.6,3.1c1.6,0.1,3-1.1,3.1-2.6c0.1-1.6-1.1-3-2.6-3.1
					C14.4,70.3,13.1,71.4,12.9,73z"/>
				<path fill="#F0047F" d="M15.3,77.3c-0.1,1.6,1.1,3,2.6,3.1c1.6,0.1,3-1.1,3.1-2.6c0.1-1.6-1.1-3-2.6-3.1
					C16.8,74.6,15.4,75.8,15.3,77.3z"/>
			</g>
		</g>
		<path fill="#7C411E" d="M80.4,58.3c0,15.5-13.7,28.1-30.7,28.1c-17,0-30.7-12.6-30.7-28.1c0-15.5,13.8-28.1,30.7-28.1
			C66.7,30.1,80.4,42.7,80.4,58.3z"/>
		<g>
			<path fill="#FDCDA1" d="M73.2,67.6c0,13.7-9.6,24.8-30.4,24.8c-14.3,0-23.8-4.5-27.8-11.9c-1.8-3.3,0.5-9.2,0.5-13.5
				c0-13.7,6.4-24.2,27.3-24.2C63.6,42.8,73.2,53.9,73.2,67.6z"/>
			<path fill="#F9687D" d="M35.5,78.8c-4.6,0-8.3-2.1-8.3-4.9c0-0.3,0.2-0.5,0.5-0.5s0.5,0.2,0.5,0.5c0,2.1,3.3,3.8,7.2,3.8
				c3.9,0,7.2-1.7,7.2-3.8c0-0.3,0.2-0.5,0.5-0.5s0.5,0.2,0.5,0.5C43.8,76.7,40.1,78.8,35.5,78.8z"/>
			<path fill="#452F27" d="M52.5,63.8c0,1.4-1.2,2.6-2.6,2.6c-1.4,0-2.6-1.2-2.6-2.6c0-1.4,1.2-2.6,2.6-2.6
				C51.3,61.2,52.5,62.4,52.5,63.8z"/>
			<circle fill="#FBB4C3" cx="55.2" cy="74.4" r="4.2"/>
			<path fill="#FBB4C3" d="M24.7,72.4c0,2.3-1.9,4.2-4.2,4.2c-2.3,0-4.2-1.9-4.2-4.2c0-2.3,1.9-4.2,4.2-4.2
				C22.8,68.2,24.7,70.1,24.7,72.4z"/>
		</g>
		<path fill="#7C411E" d="M59.7,45.6l-0.5-0.7c-6.4-9.3-27-13.4-38.8-2.5c-11.3,10.5-5.1,25.6-5.1,25.6c2.4-8.7,20.9-14.7,20.9-14.7
			c-1,2.7-7.9,7.3-7.9,7.3c9.4,3,18-6.1,18-6.1c-1.6,3.9-8.5,7.2-8.5,7.2c16,1.2,21-14.8,21-14.8s0,13.4,7.2,22.9c0,0,1.2,2.9,7,4.6
			C73.1,74.4,79.9,49.5,59.7,45.6z"/>
		<path fill="#452F27" d="M54.6,58.1c-0.2,0-0.4-0.2-0.5-0.4c-0.1-0.7-0.6-1.3-1.3-1.6c-0.5-0.2-1.1-0.2-1.6,0
			c-0.5,0.2-0.9,0.6-1.1,1.1c-0.1,0.3-0.4,0.4-0.7,0.3c-0.3-0.1-0.4-0.4-0.3-0.7c0.3-0.8,0.9-1.4,1.7-1.7c0.8-0.3,1.6-0.3,2.4,0
			c1,0.4,1.7,1.3,1.9,2.3C55.2,57.8,55,58.1,54.6,58.1C54.7,58.1,54.6,58.1,54.6,58.1z"/>
		<path fill="#452F27" d="M29.9,57.5c-0.2,0-0.4-0.2-0.5-0.4c-0.1-0.7-0.6-1.3-1.3-1.6c-1.1-0.4-2.3,0.1-2.7,1.2
			c-0.1,0.3-0.4,0.4-0.7,0.3c-0.3-0.1-0.4-0.4-0.3-0.7c0.6-1.6,2.5-2.3,4-1.7c1,0.4,1.7,1.3,1.9,2.3C30.4,57.1,30.2,57.4,29.9,57.5
			C29.9,57.5,29.9,57.5,29.9,57.5z"/>
		<polygon fill="#FCB382" points="33.7,66.4 31.4,68.2 33.2,70.3 		"/>
		<path fill="#452F27" d="M29.4,62.8c0,1.4-1.2,2.6-2.6,2.6c-1.4,0-2.6-1.2-2.6-2.6c0-1.4,1.2-2.6,2.6-2.6
			C28.3,60.2,29.4,61.4,29.4,62.8z"/>
		<path fill="#FDCDA1" d="M66.5,72.8c0,0,3.2-6.1,7.7-3.5c5.5,3.2-4.9,14.5-8.9,12.6"/>
	</g>
	<g>
		
			<rect x="7.8" y="67.6" transform="matrix(0.5488 -0.8359 0.8359 0.5488 -30.3635 81.8558)" fill="#B3B3B3" width="105.7" height="3"/>
		<path fill="#F668B2" d="M23.1,123.6c-1.6,0-3.1-0.5-4.4-1.4l-0.7-0.5c-3.5-2.5-4.3-7.3-1.8-10.8l2.5-3.5c0.5-0.6,1.2-1,2-1
			c0.5,0,1,0.2,1.4,0.4c1.1,0.8,1.4,2.3,0.6,3.4l-2.5,3.5c-0.9,1.3-0.6,3.1,0.7,4l0.7,0.5c0.5,0.3,1.1,0.5,1.6,0.5
			c0.9,0,1.8-0.5,2.3-1.2l6.7-9.5l4,2.8l-6.7,9.5C28,122.4,25.6,123.6,23.1,123.6z"/>
		<g>
			<path fill="#B3B3B3" d="M69.5,80.3c0,0-1,2.4-0.5,2.2c0.5-0.2,1.2-1.9,1.2-1.9"/>
			<path fill="#B3B3B3" d="M24.9,43c0,0-2.2,1.4-1.6,1.5c0.5,0.1,2.1-0.9,2.1-0.9"/>
			<path fill="#B3B3B3" d="M17.7,9.1c0,0-2.6,0-2.2,0.4c0.4,0.4,2.2,0.4,2.2,0.4"/>
			<path fill="#B3B3B3" d="M133.9,72.6c0,0,1,2.4,1.2,1.9c0.2-0.5-0.5-2.2-0.5-2.2"/>
			<g>
				<g>
					<g>
						<path fill="#F55CAC" d="M90.7,22.4c0,0,12.6,0.9,16.2,3.8c3.5,3,7.2,5.8,8.7,11c1.5,5.2,4.8,14.8,4.8,14.8s-28-28.5-29.5-29.8
							"/>
						<g>
							<path fill="#F668B2" d="M106.4,25.7c-7.6-3.4-15.2-11-17.7-13.6c0.7,2.3,2.5,7,2,10.8C90.7,22.8,99.2,23.4,106.4,25.7z"/>
							<path fill="#F55CAC" d="M90.8,22.2L73.3,9.2c0,0,11.6,0.7,15.4,2.7C88.7,12,91.5,15.8,90.8,22.2z"/>
							<path fill="#F668B2" d="M90.8,22.2c0,0,35,22.6,43.9,50.5c0,0-11.7,3.3-17.8,18.8L90.8,22.2z"/>
							<path fill="#F668B2" d="M91.5,22.5L16.3,9.1c0,0,13.5,0.6,27.4-9.1C43.7,0,66.5-0.9,91.5,22.5z"/>
							<path fill="#F55CAC" d="M90.8,22.2C64.2,8.3,34.3,8.1,21.4,8.8C19,9,17.4,9,17.1,9.1c0,0,0,0,0,0
								c11.8,16.4,8.2,32.3,7.6,34.4C53.5,26.7,90.8,22.2,90.8,22.2z"/>
							<path fill="#B3B3B3" d="M116.5,90.2c0,0,0.2,2.6,0.5,2.2c0.4-0.4,0.3-2.2,0.3-2.2"/>
							<path fill="#F55CAC" d="M91.1,22c0,0-9.4,33.8-21.7,58.9c0.2,0.2,0.3,0.4,0.3,0.4c22.7-3.3,47.2,10.2,47.2,10.2
								c0.1-0.2,0.1-0.5,0.2-0.7C116.5,58.9,91.1,22,91.1,22z"/>
							<path fill="#F668B2" d="M91.1,22c0,0-9.4,33.8-21.7,58.9c-2.4-3.2-20.9-26.9-44.8-37.3c0,0,0-0.1,0.1-0.2
								c28.8-16.7,66.1-21.2,66.1-21.2L91.1,22z"/>
						</g>
					</g>
					<path fill="#B3B3B3" d="M93.1,23.3c-0.3,0.5-1.4,0.5-2.4-0.2c-1-0.6-1.6-1.5-1.2-2.1c0.3-0.5,1.4-0.4,2.4,0.2
						C92.9,21.9,93.4,22.8,93.1,23.3z"/>
					<path fill="#B3B3B3" d="M90.4,21.5c0,0,2.8-3.7,3.6-3.2c0.8,0.5-1.6,4.3-1.6,4.3S91,22.6,90.4,21.5z"/>
				</g>
			</g>
		</g>
	</g>
	<path fill="#FDCDA1" d="M45.5,101.2c0.1-1.9-0.8-3.7-2.9-4c-1.6-0.2-2.2,0.6-1.9,1.9c-1.4-0.1-3,0.3-2.6,1.6
		c-0.7-0.2-1.6-0.2-1.9,0.5c-0.4,0.8,0,1.4,0.5,1.9c-1.4,0.7-1,2.5,0,3.7c0.2,0.3,0.5,0.5,0.8,0.6C40.9,109.5,45.4,104.3,45.5,101.2
		z"/>
	<path fill="#FF8000" d="M31.1,106.5C31.1,106.5,31,106.5,31.1,106.5l-3.8-1.6c-0.1-0.1-0.2-0.2-0.1-0.3c0.1-0.1,0.2-0.2,0.3-0.1
		l3.7,1.6c0.1,0.1,0.2,0.2,0.1,0.3C31.3,106.4,31.2,106.5,31.1,106.5z"/>
	<path fill="#FDCDA1" d="M28.6,114.9c0.2,0.2,0.5,0.4,0.8,0.5c1.5,0.5,3.3,0.2,3.5-1.4c0.7,0.3,1.4,0.5,2-0.2
		c0.5-0.5,0.2-1.3-0.2-1.9c1.3-0.1,1.1-1.8,0.5-3c1.3-0.2,1.8-1.1,1-2.5c-1-1.8-3.1-2-4.8-1.2C28.4,106.6,25.2,112.6,28.6,114.9z"/>
</g>
</svg>
