<?xml version="1.0" standalone="no"?>
<!DOCTYPE svg PUBLIC "-//W3C//DTD SVG 20010904//EN"
 "http://www.w3.org/TR/2001/REC-SVG-20010904/DTD/svg10.dtd">
<svg version="1.0" xmlns="http://www.w3.org/2000/svg"
 width="500.000000pt" height="500.000000pt" viewBox="0 0 500.000000 500.000000"
 preserveAspectRatio="xMidYMid meet">

<g transform="translate(0.000000,500.000000) scale(0.100000,-0.100000)"
fill="#000000" stroke="none">
<path d="M2746 4569 l-26 -31 -45 15 c-52 18 -55 11 -24 -43 19 -34 20 -32 5
17 -7 22 -6 22 26 8 32 -13 34 -12 66 18 l32 31 0 -46 c0 -43 2 -47 33 -58
l32 -11 -25 -14 c-15 -8 -29 -28 -36 -51 l-10 -37 -23 36 c-22 36 -22 36 -56
21 -50 -21 -60 -18 -40 12 24 36 12 41 -14 6 -38 -53 -27 -62 44 -37 22 8 41
15 42 15 2 0 12 -18 23 -40 24 -48 37 -44 46 12 6 35 12 43 45 57 47 19 49 27
9 36 -43 9 -60 31 -60 76 0 47 -10 49 -44 8z"/>
<path d="M1876 4510 c-43 -13 -91 -65 -121 -131 l-26 -59 -27 14 c-15 8 -44
17 -65 21 -47 9 -115 -22 -140 -64 -32 -55 -15 -133 37 -160 l26 -14 -45 -48
c-37 -40 -45 -55 -45 -86 1 -94 103 -131 216 -79 l51 24 17 -35 c18 -39 80
-72 134 -73 66 0 139 45 162 100 l12 29 36 -24 c48 -31 99 -39 153 -25 81 22
149 92 149 155 0 42 -34 92 -74 112 l-35 16 24 29 c28 33 33 87 12 128 -31 62
-125 88 -201 56 -33 -14 -35 -13 -40 8 -9 37 -47 77 -90 97 -44 20 -75 22
-120 9z m110 -29 c46 -21 83 -62 91 -102 l5 -27 42 19 c22 10 61 19 85 19 92
0 146 -109 86 -174 -13 -14 -29 -26 -35 -26 -5 0 -10 -7 -10 -15 0 -9 9 -15
24 -15 36 0 89 -41 100 -77 11 -42 -6 -84 -50 -123 -67 -58 -162 -61 -237 -8
-33 24 -33 24 -69 -42 -11 -19 -35 -39 -64 -52 -90 -39 -174 -4 -210 90 -1 1
-25 -9 -55 -23 -173 -80 -272 43 -133 165 29 25 34 34 23 41 -8 5 -19 9 -26 9
-20 0 -53 51 -53 82 0 97 112 146 204 88 l37 -22 12 33 c32 90 62 134 107 157
53 27 73 27 126 3z"/>
<path d="M3471 4374 c-13 -21 -31 -59 -40 -83 l-18 -43 -52 51 c-29 28 -54 51
-57 51 -9 0 -4 -48 10 -94 11 -35 11 -46 3 -43 -30 11 -129 28 -134 23 -8 -7
11 -43 42 -82 13 -16 26 -26 30 -22 4 4 -7 24 -25 45 -38 43 -30 50 41 33 l50
-12 -20 -32 c-23 -36 -67 -55 -133 -55 -27 -1 -48 -5 -48 -10 0 -5 15 -20 33
-32 17 -12 33 -23 35 -25 2 -1 -8 -19 -22 -39 -15 -21 -31 -56 -37 -79 -16
-60 -25 -68 -74 -61 -99 15 -171 -66 -134 -149 11 -23 8 -30 -25 -66 -42 -47
-48 -92 -16 -133 39 -50 146 -60 221 -22 31 16 32 16 63 -13 17 -16 41 -33 52
-36 28 -8 75 9 95 36 l17 22 31 -27 c63 -53 153 -48 211 11 21 20 39 43 41 50
4 10 11 11 34 2 93 -36 235 61 235 161 0 58 -59 99 -142 99 -32 0 -39 3 -34
16 3 9 6 29 6 45 l0 29 86 0 c102 0 104 7 16 65 -33 22 -61 43 -61 46 -1 4 11
10 27 14 34 8 112 53 112 64 0 5 -26 12 -57 16 -32 3 -68 9 -80 12 l-23 5 25
30 c30 36 59 88 52 95 -3 2 -31 0 -63 -6 -97 -18 -94 -19 -78 42 25 94 19 97
-71 32 l-63 -45 -7 42 c-4 23 -13 58 -19 76 l-12 35 -23 -39z m37 -56 c5 -29
9 -54 9 -54 -1 -1 -21 -4 -45 -7 -40 -5 -42 -4 -36 16 11 37 44 97 53 97 5 0
13 -24 19 -52z m142 -47 c-7 -28 -13 -51 -15 -51 -2 0 -22 9 -45 19 l-43 19
54 35 c30 19 56 33 58 31 2 -1 -2 -26 -9 -53z m-287 11 l37 -38 -30 -17 c-34
-20 -33 -21 -49 51 -5 23 -6 42 -2 42 4 0 24 -17 44 -38z m220 -55 c105 -45
161 -157 126 -256 l-11 -31 -33 29 c-67 59 -148 61 -213 6 l-28 -24 -13 34
c-14 41 -63 84 -102 92 -33 6 -35 13 -15 51 20 37 64 78 106 96 44 19 140 20
183 3z m201 -19 c-17 -28 -57 -78 -63 -78 -3 0 -18 18 -34 40 l-27 39 42 4
c88 8 89 7 82 -5z m-514 -112 c0 -15 -55 -40 -80 -37 -8 2 -23 10 -34 19 -17
16 -16 17 30 23 81 10 84 10 84 -5z m535 -10 l60 -13 -57 -28 c-32 -16 -59
-27 -61 -24 -8 8 -16 79 -9 79 4 -1 34 -7 67 -14z m-444 -65 c22 -21 42 -53
45 -70 4 -17 10 -31 13 -31 4 0 20 14 36 30 55 58 143 59 199 3 32 -32 40 -59
34 -123 l-5 -49 47 6 c116 14 171 -82 95 -166 -60 -66 -144 -90 -189 -56 -27
20 -33 19 -40 -8 -3 -12 -21 -37 -40 -56 -59 -57 -154 -54 -210 8 l-19 21 -27
-32 c-36 -43 -91 -45 -125 -6 -13 15 -24 31 -26 37 -3 7 -24 1 -53 -14 -53
-27 -131 -34 -167 -15 -22 12 -49 61 -49 89 0 12 16 39 36 60 29 33 34 43 25
60 -18 32 -13 89 9 111 26 26 61 34 119 27 55 -7 71 4 71 45 0 44 26 97 66
134 28 27 44 34 76 34 34 0 47 -7 79 -39z m434 -69 l50 -37 -65 -6 c-36 -3
-68 -4 -72 -2 -7 3 24 83 32 83 3 0 28 -17 55 -38z"/>
<path d="M2559 4203 c-90 -113 -90 -113 -29 -113 27 0 50 -4 50 -9 0 -5 -20
-44 -45 -87 -24 -43 -42 -81 -39 -84 7 -6 204 197 204 210 0 10 -37 20 -77 20
-37 0 -40 6 -18 37 9 12 22 40 29 61 23 64 -8 49 -75 -35z m71 54 c0 -7 -15
-38 -34 -69 l-33 -56 59 -8 60 -9 -72 -75 -71 -75 31 62 c16 34 30 65 30 68 0
3 -21 5 -46 5 -35 0 -45 3 -41 14 6 16 108 156 113 156 2 0 4 -6 4 -13z"/>
<path d="M2911 4216 c-19 -20 -28 -23 -48 -15 -46 17 -55 13 -38 -21 18 -35
19 -62 3 -78 -20 -20 -2 -24 31 -7 25 12 31 13 31 2 0 -8 8 -22 19 -31 18 -16
19 -15 25 19 5 25 15 39 36 50 38 19 37 23 -1 37 -27 9 -30 15 -27 39 5 35 -2
36 -31 5z m17 -21 c-5 -21 0 -27 26 -34 l31 -9 -32 -13 c-25 -10 -33 -20 -33
-39 l0 -25 -19 24 c-15 20 -21 22 -39 12 -20 -11 -21 -10 -13 12 6 14 6 29 0
38 -15 24 -10 31 17 25 20 -5 30 -2 41 14 19 27 26 25 21 -5z"/>
<path d="M1001 3883 c1 -31 2 -34 8 -14 l6 24 28 -32 c23 -28 31 -32 59 -26
28 6 30 5 23 -11 -10 -24 -10 -42 0 -77 l7 -28 -37 18 c-33 16 -38 16 -45 2
-5 -9 -18 -27 -29 -40 l-20 -24 -1 37 c0 31 -5 40 -37 59 l-37 23 37 9 c20 5
37 13 37 17 0 9 -80 -8 -93 -20 -4 -4 13 -18 38 -31 44 -24 45 -25 45 -74 l1
-50 33 36 c18 20 35 41 37 48 4 10 14 8 39 -8 55 -33 63 -28 41 29 -19 49 -19
50 0 74 30 38 24 45 -23 31 l-43 -12 -30 38 c-16 21 -33 38 -37 39 -5 0 -8
-17 -7 -37z"/>
<path d="M4126 3888 l-25 -33 -46 17 c-51 19 -55 13 -25 -42 21 -38 26 -36 10
4 -11 29 -2 33 32 15 17 -9 25 -6 53 21 l34 33 3 -49 c3 -45 5 -49 36 -58 l34
-9 -28 -12 c-20 -8 -31 -22 -38 -50 l-12 -40 -22 37 c-23 37 -23 37 -57 22
-49 -20 -58 -18 -39 11 9 14 14 28 11 31 -2 3 -15 -11 -27 -31 -12 -20 -20
-39 -16 -42 5 -5 54 7 93 23 7 3 21 -13 33 -36 11 -22 25 -38 29 -36 5 3 14
26 20 50 9 38 16 46 47 56 40 14 36 22 -18 39 -21 7 -37 15 -37 19 4 29 -3 92
-10 92 -5 0 -21 -15 -35 -32z"/>
<path d="M2244 3773 c14 -115 28 -183 39 -183 6 0 25 14 42 30 l32 31 23 -83
c31 -110 39 -124 41 -68 5 132 -5 260 -20 260 -4 0 -26 -16 -48 -35 l-41 -35
-12 48 c-25 100 -66 126 -56 35z m47 -50 c7 -29 14 -53 17 -53 2 0 23 16 45
36 l42 35 7 -43 c7 -49 8 -183 1 -153 -3 11 -14 44 -25 73 l-20 54 -34 -33
c-18 -18 -35 -31 -38 -28 -4 4 -36 190 -36 205 1 21 30 -45 41 -93z"/>
<path d="M1887 3693 c-49 -207 -50 -200 33 -158 27 14 54 25 61 25 7 0 9 -23
5 -77 -4 -43 -9 -112 -12 -153 l-5 -75 20 25 c32 39 100 211 123 311 11 49 19
92 16 94 -2 2 -34 -5 -72 -16 -37 -11 -74 -18 -81 -15 -16 6 -35 67 -35 114 0
21 -5 32 -14 32 -10 0 -22 -33 -39 -107z m50 5 c7 -33 15 -63 17 -66 3 -2 37
4 75 14 39 10 74 15 78 11 12 -13 -80 -294 -105 -319 -4 -4 -5 51 -3 122 1 72
0 130 -3 130 -4 0 -34 -14 -68 -31 -59 -30 -61 -30 -55 -9 3 13 14 67 24 121
9 54 20 96 22 93 3 -3 11 -32 18 -66z"/>
<path d="M1591 3695 c-39 -52 -71 -96 -71 -99 0 -3 23 -6 50 -6 28 0 50 -3 50
-6 0 -3 -20 -42 -45 -87 -25 -44 -43 -83 -39 -86 7 -6 204 196 204 210 0 4
-15 10 -32 13 -85 13 -108 14 -108 6 0 -4 27 -12 60 -17 l61 -8 -76 -80 -75
-80 35 66 c19 36 35 69 35 72 0 4 -20 7 -45 7 -25 0 -45 3 -45 8 0 4 27 45 60
91 62 87 79 90 35 6 -14 -26 -24 -50 -21 -52 5 -5 39 58 56 101 6 18 5 26 -4
29 -8 3 -42 -32 -85 -88z"/>
<path d="M1277 3589 c-13 -18 -19 -19 -53 -10 -21 6 -39 9 -41 7 -2 -2 4 -20
13 -39 14 -30 15 -41 5 -63 -12 -28 -7 -29 40 -10 10 5 19 -1 27 -19 16 -34
29 -31 36 8 4 23 15 38 31 45 32 15 32 30 0 38 -19 5 -25 13 -25 35 0 34 -13
37 -33 8z m38 -49 c26 0 26 -20 1 -30 -19 -7 -26 -17 -26 -36 l0 -27 -21 27
c-15 20 -25 24 -32 17 -18 -18 -25 -13 -20 13 3 13 0 33 -6 45 -13 24 -12 25
22 12 20 -8 29 -6 44 11 l18 20 3 -26 c2 -14 10 -26 17 -26z"/>
<path d="M4340 3525 c-22 -22 -29 -24 -60 -15 -18 5 -35 8 -38 6 -2 -2 4 -19
13 -36 14 -26 15 -38 6 -58 -14 -30 -9 -37 17 -23 30 16 38 14 50 -15 15 -31
32 -23 32 14 0 21 7 30 30 39 36 14 39 30 6 39 -20 5 -26 13 -28 40 l-3 35
-25 -26z m18 -27 c-2 -17 3 -24 20 -26 30 -4 28 -20 -3 -28 -20 -5 -25 -13
-25 -38 l-1 -31 -20 27 c-16 22 -24 26 -38 18 -15 -8 -17 -6 -14 14 3 13 0 34
-7 45 -11 21 -10 22 23 16 26 -5 36 -3 40 9 10 24 29 19 25 -6z"/>
<path d="M2781 3388 c2 -33 3 -36 6 -14 l5 28 33 -32 c31 -30 36 -32 64 -22
l31 11 -15 -29 c-13 -25 -13 -33 0 -64 18 -42 17 -42 -31 -19 -32 16 -37 16
-44 2 -5 -9 -18 -27 -29 -40 l-20 -24 -1 37 c0 31 -6 41 -36 62 l-37 25 37 6
c20 4 36 11 36 15 0 8 -80 -8 -92 -19 -4 -4 13 -18 37 -31 44 -24 45 -26 45
-75 l1 -50 33 36 c18 20 35 42 38 49 3 11 13 9 41 -9 20 -12 41 -21 46 -19 5
2 2 24 -6 50 -15 45 -15 48 8 84 18 30 19 36 7 31 -9 -3 -32 -9 -51 -12 -31
-6 -38 -3 -63 29 -16 20 -32 36 -36 36 -5 0 -7 -19 -7 -42z"/>
<path d="M3531 3346 c-19 -20 -28 -23 -48 -15 -46 17 -55 13 -38 -20 8 -17 20
-33 26 -37 8 -5 8 -1 0 14 -16 31 -14 34 17 27 21 -4 33 -1 43 11 13 15 14 15
19 -7 3 -14 16 -26 30 -30 l25 -6 -27 -13 c-14 -7 -29 -24 -33 -39 l-7 -26
-17 24 c-11 15 -23 21 -31 16 -7 -4 -15 -2 -19 4 -5 7 -12 3 -19 -14 -13 -28
-8 -30 28 -11 23 13 26 12 44 -17 l20 -32 11 39 c7 24 19 42 32 47 36 13 37
29 3 41 -28 9 -31 14 -26 39 7 35 -3 37 -33 5z"/>
<path d="M965 3351 c-30 -12 -75 -61 -81 -88 l-6 -23 -30 25 c-38 32 -65 39
-134 33 -43 -4 -61 -11 -84 -33 -34 -33 -48 -86 -32 -127 9 -23 8 -28 -6 -28
-8 0 -35 -9 -58 -21 -81 -39 -110 -134 -58 -186 23 -23 31 -25 87 -21 34 3 69
8 77 12 13 5 15 -1 12 -34 -3 -34 1 -44 27 -71 30 -29 36 -31 86 -27 38 3 64
12 89 32 31 23 37 25 42 11 15 -39 143 -62 215 -40 80 25 149 112 149 187 l0
35 50 -5 c48 -4 52 -3 91 37 40 40 41 43 37 96 -7 88 -64 135 -163 135 -42 0
-55 4 -55 15 0 21 -37 37 -70 30 -23 -5 -31 -2 -40 15 -21 39 -97 60 -145 41z
m105 -26 c28 -15 35 -30 30 -65 -2 -13 1 -12 16 1 29 25 58 31 80 15 16 -13
17 -18 7 -35 -14 -23 -4 -34 17 -20 23 14 108 11 140 -6 38 -19 60 -63 60
-115 0 -33 -6 -48 -31 -72 -28 -29 -34 -30 -88 -25 l-59 5 -4 -58 c-8 -108
-87 -174 -210 -175 -74 0 -120 23 -126 64 -3 20 -6 19 -48 -18 -55 -48 -90
-57 -138 -37 -48 20 -64 55 -47 102 7 20 11 37 9 40 -3 2 -28 -6 -56 -18 -62
-26 -114 -18 -145 23 -17 23 -18 31 -8 62 21 63 121 127 160 102 15 -9 13 7
-4 29 -23 31 -19 89 9 119 55 60 154 56 225 -9 21 -18 41 -34 44 -34 3 0 3 15
0 33 -12 77 88 133 167 92z"/>
<path d="M3946 3335 c-138 -35 -269 -135 -348 -266 -34 -57 -64 -136 -82 -222
-6 -23 -9 -26 -26 -17 -28 15 -97 12 -131 -5 -58 -31 -58 -93 0 -136 l31 -23
-31 -15 c-37 -17 -54 -50 -45 -85 12 -48 91 -65 154 -32 27 14 32 14 32 2 0
-22 59 -66 88 -66 34 0 92 35 92 55 0 19 -1 19 51 -5 49 -22 109 -26 142 -9
53 27 73 92 43 135 -10 13 -11 25 -5 35 26 42 -12 117 -72 142 l-29 12 33 60
c76 137 236 176 332 79 47 -47 54 -78 24 -110 -14 -15 -23 -37 -23 -58 -1 -33
-3 -34 -46 -39 -75 -9 -101 -61 -56 -114 21 -24 31 -28 69 -26 44 1 45 0 51
-33 4 -18 17 -40 29 -49 28 -20 76 -19 98 1 16 14 19 14 38 -5 26 -26 95 -44
139 -36 21 4 50 21 70 41 30 30 34 39 30 74 -3 34 -1 40 15 40 11 0 34 15 53
34 44 44 45 83 5 128 -24 27 -36 32 -72 32 -24 0 -55 -3 -69 -7 l-25 -8 3 70
c5 90 -16 161 -70 241 -48 73 -132 139 -215 170 -75 28 -199 35 -277 15z m219
-20 c179 -47 308 -192 322 -362 3 -37 1 -84 -5 -103 -9 -30 -10 -32 -11 -9 -1
14 -8 34 -16 45 -8 10 -15 38 -15 61 -1 151 -146 301 -323 334 -152 28 -318
-47 -429 -193 -45 -60 -97 -168 -99 -206 0 -9 -15 -29 -34 -45 l-33 -27 9 40
c16 73 59 174 101 238 122 187 335 278 533 227z m-76 -77 l36 -23 -75 -5
c-102 -8 -192 -50 -268 -127 -55 -56 -132 -182 -132 -218 0 -12 -5 -15 -22 -9
-13 3 -24 7 -26 9 -4 3 35 110 57 152 29 57 126 160 175 185 57 30 145 57 185
57 18 1 50 -9 70 -21z m103 -68 c95 -35 167 -115 183 -202 10 -53 -8 -47 -23
7 -17 65 -80 129 -150 155 -113 43 -267 21 -355 -49 -71 -56 -127 -147 -142
-233 -9 -50 -27 -64 -42 -32 -10 22 -7 35 28 103 67 131 165 223 272 256 64
21 167 18 229 -5z m28 -68 c59 -30 106 -85 116 -138 5 -26 2 -32 -14 -36 -17
-5 -22 0 -27 22 -10 46 -79 116 -132 134 -147 50 -311 -19 -374 -158 -10 -23
-19 -51 -19 -63 0 -21 -25 -43 -49 -43 -13 0 5 63 39 130 27 53 94 125 138
149 89 48 231 49 322 3z m-43 -44 c46 -21 73 -53 91 -105 9 -28 8 -34 -6 -42
-13 -7 -21 -2 -37 26 -35 62 -87 96 -154 101 -33 2 -76 -1 -97 -8 -53 -18
-128 -91 -153 -150 -23 -54 -56 -72 -41 -22 56 188 233 277 397 200z m246
-168 c15 -12 29 -36 33 -55 7 -41 12 -42 61 -15 79 42 163 11 163 -60 0 -40
-39 -80 -78 -80 -29 0 -29 -1 -28 -56 1 -50 -2 -59 -25 -76 -63 -48 -175 -25
-193 38 l-10 32 -15 -31 c-34 -67 -121 -54 -121 18 0 18 5 37 10 40 28 17 4
21 -41 7 -45 -15 -53 -15 -77 -1 -65 36 -17 117 61 105 39 -6 39 -6 32 23 -4
19 -1 40 9 59 33 64 165 95 219 52z m-789 -61 c14 -11 26 -28 26 -38 0 -16 5
-16 49 7 63 30 121 24 163 -18 30 -30 37 -77 16 -98 -9 -9 -8 -16 5 -30 32
-35 20 -95 -24 -117 -41 -22 -84 -18 -141 10 -27 14 -52 25 -54 25 -2 0 -4
-11 -4 -24 0 -49 -80 -74 -127 -41 -12 9 -25 31 -28 49 l-7 33 -23 -23 c-48
-48 -146 -39 -153 14 -4 29 14 51 56 69 34 14 43 33 16 33 -22 0 -74 55 -74
79 0 55 112 81 177 42 l31 -20 6 25 c6 21 32 41 57 43 4 1 18 -8 33 -20z"/>
<path d="M3086 3172 c-17 -24 -35 -41 -42 -38 -7 3 -29 8 -50 12 l-37 7 32
-46 32 -47 -21 -40 -20 -40 22 0 c13 0 38 9 57 21 18 11 34 19 35 17 2 -2 13
-18 25 -36 28 -40 41 -33 41 22 0 39 3 45 35 62 19 10 35 22 35 25 0 4 -19 10
-43 13 -41 6 -43 8 -58 59 l-15 52 -28 -43z m45 -59 c6 -17 17 -23 41 -23 l33
-1 -27 -20 c-19 -14 -28 -30 -28 -48 0 -41 -11 -45 -36 -14 l-22 28 -37 -18
c-21 -10 -39 -16 -42 -14 -2 2 1 17 7 32 8 22 6 33 -11 61 l-21 35 39 -7 c35
-5 39 -3 57 27 l19 33 10 -25 c5 -13 13 -34 18 -46z"/>
<path d="M2115 3119 c-96 -122 -96 -119 -35 -119 27 0 50 -4 50 -9 0 -5 -20
-44 -44 -87 -25 -44 -42 -81 -39 -84 6 -6 203 196 203 209 0 11 -36 21 -78 21
-19 0 -32 3 -30 8 46 89 59 125 50 134 -7 7 -31 -16 -77 -73z m65 46 c-15 -40
-41 -89 -57 -107 -13 -15 -9 -17 49 -25 l63 -8 -73 -75 -73 -75 31 62 c16 34
30 65 30 68 0 3 -20 5 -45 5 -25 0 -45 3 -45 6 0 8 120 174 125 174 3 0 0 -11
-5 -25z"/>
<path d="M1743 3107 c-15 -21 -21 -23 -50 -14 -42 13 -48 6 -28 -32 11 -23 13
-36 5 -50 -18 -34 -12 -42 20 -26 29 15 30 15 46 -16 12 -25 18 -29 25 -18 5
8 9 24 9 37 0 14 8 26 24 32 36 13 40 29 12 42 -19 8 -26 19 -26 40 0 34 -13
36 -37 5z m45 -55 l27 -9 -27 -13 c-20 -9 -28 -21 -28 -39 l-1 -26 -19 23
c-12 15 -26 21 -37 18 -14 -5 -18 0 -19 22 0 15 -4 35 -8 45 -7 15 -5 16 20 7
22 -9 31 -8 43 5 15 15 16 14 19 -4 2 -11 15 -24 30 -29z"/>
<path d="M2702 2917 c-21 -22 -28 -24 -59 -15 -19 5 -37 7 -40 5 -2 -3 3 -20
12 -37 14 -26 15 -38 6 -58 -15 -32 -7 -39 23 -18 25 16 26 15 41 -14 18 -36
35 -31 35 9 0 22 7 31 30 41 36 15 38 27 6 40 -18 6 -26 18 -28 40 l-3 32 -23
-25z m15 -27 c-4 -15 1 -22 19 -26 31 -8 31 -22 -1 -30 -19 -5 -25 -13 -25
-33 l-1 -26 -20 24 c-17 21 -23 23 -40 13 -18 -11 -19 -10 -13 12 3 13 0 34
-6 46 -11 21 -10 22 18 16 20 -5 33 -2 42 9 18 21 33 19 27 -5z"/>
<path d="M1338 2843 c7 -3 16 -2 19 1 4 3 -2 6 -13 5 -11 0 -14 -3 -6 -6z"/>
<path d="M1423 2833 c31 -2 83 -2 115 0 31 2 5 3 -58 3 -63 0 -89 -1 -57 -3z"/>
<path d="M1648 2815 c63 -18 100 -36 167 -82 l50 -34 -35 32 c-44 39 -146 88
-196 95 -33 4 -30 2 14 -11z"/>
<path d="M1283 2803 c9 -2 23 -2 30 0 6 3 -1 5 -18 5 -16 0 -22 -2 -12 -5z"/>
<path d="M583 2758 l-33 -32 -45 16 c-25 10 -45 15 -45 13 0 -2 9 -24 20 -50
l20 -46 -26 -35 c-15 -19 -24 -38 -20 -41 6 -7 60 5 97 21 13 5 20 -3 33 -33
9 -23 20 -41 25 -41 5 0 15 22 22 49 11 45 16 50 53 61 44 14 43 14 -26 40
-21 7 -28 17 -29 37 -1 16 -4 38 -7 51 -7 22 -7 22 -39 -10z m29 -43 c4 -35 8
-41 36 -49 l32 -9 -28 -17 c-19 -12 -32 -30 -36 -51 -7 -31 -9 -32 -19 -16
-33 51 -31 50 -71 37 -45 -15 -53 -9 -31 23 15 23 15 28 1 62 l-16 37 24 -6
c13 -3 31 -8 39 -12 9 -3 23 7 38 27 25 35 26 34 31 -26z"/>
<path d="M1497 2783 c18 -2 50 -2 70 0 21 2 7 4 -32 4 -38 0 -55 -2 -38 -4z"/>
<path d="M1413 2773 c9 -2 25 -2 35 0 9 3 1 5 -18 5 -19 0 -27 -2 -17 -5z"/>
<path d="M1628 2773 c7 -3 16 -2 19 1 4 3 -2 6 -13 5 -11 0 -14 -3 -6 -6z"/>
<path d="M1353 2763 c9 -2 23 -2 30 0 6 3 -1 5 -18 5 -16 0 -22 -2 -12 -5z"/>
<path d="M1293 2753 c9 -2 23 -2 30 0 6 3 -1 5 -18 5 -16 0 -22 -2 -12 -5z"/>
<path d="M1223 2743 c9 -2 25 -2 35 0 9 3 1 5 -18 5 -19 0 -27 -2 -17 -5z"/>
<path d="M1350 2705 c-74 -20 -180 -40 -235 -45 l-100 -8 100 3 c72 2 135 12
225 36 108 28 142 33 250 33 116 1 129 -1 184 -27 32 -15 61 -26 63 -24 2 2
-15 12 -37 22 -22 10 -44 23 -49 29 -6 7 -59 12 -138 13 -118 3 -138 0 -263
-32z"/>
<path d="M2418 2665 c-16 -9 -37 -36 -50 -64 l-22 -49 -32 28 c-65 56 -160 47
-240 -23 -58 -51 -86 -106 -91 -182 -3 -49 0 -66 17 -93 24 -39 89 -71 142
-72 36 0 37 -1 28 -26 -15 -37 -12 -87 5 -111 20 -29 83 -47 129 -39 19 4 50
19 67 33 28 24 32 25 41 10 13 -24 70 -22 93 3 l18 20 26 -24 c40 -37 65 -46
123 -46 65 0 121 25 168 74 32 34 35 42 35 96 l0 58 38 12 c74 22 137 101 137
172 0 68 -89 182 -166 214 -40 17 -141 18 -181 3 -15 -5 -40 -21 -54 -35 l-26
-25 -16 24 c-33 51 -132 73 -189 42z m147 -24 c18 -10 34 -30 40 -49 11 -38
22 -41 35 -7 23 60 134 84 231 50 90 -32 165 -134 156 -213 -7 -66 -72 -128
-147 -142 -24 -4 -34 -11 -31 -21 15 -50 11 -96 -11 -128 -62 -92 -233 -106
-297 -25 l-19 24 -16 -24 c-8 -14 -24 -27 -35 -31 -28 -8 -61 11 -61 36 0 19
-3 18 -29 -10 -32 -34 -68 -51 -111 -51 -71 0 -106 45 -89 117 14 61 13 63
-36 63 -56 0 -116 29 -135 66 -48 89 35 258 145 294 51 17 112 5 157 -30 20
-17 39 -30 42 -30 2 0 10 15 16 34 14 43 46 85 74 97 27 11 83 2 121 -20z"/>
<path d="M1265 2534 c-7 -50 -8 -52 -47 -60 -21 -5 -38 -13 -37 -19 1 -5 20
-20 43 -33 l41 -24 -34 30 -34 29 36 7 c32 6 37 11 37 34 0 49 15 57 40 22 20
-28 27 -31 56 -27 33 6 45 -5 23 -19 -11 -6 -8 -40 6 -76 7 -17 5 -17 -31 -2
-32 13 -38 14 -45 1 -5 -7 -17 -25 -28 -38 l-20 -24 -1 28 c0 15 -5 27 -11 27
-6 0 -9 -16 -7 -37 2 -21 7 -38 13 -37 5 0 24 19 41 41 l31 41 36 -21 c20 -11
39 -18 43 -14 3 3 -1 26 -9 50 -14 42 -14 47 4 73 27 41 24 45 -22 29 l-41
-15 -38 43 -38 42 -7 -51z"/>
<path d="M1606 2454 c-81 -105 -82 -114 -13 -114 20 0 37 -3 37 -6 0 -3 -20
-42 -44 -85 -25 -43 -41 -79 -36 -79 26 0 205 193 195 210 -3 4 -28 11 -56 15
-27 4 -48 10 -47 14 39 72 59 124 50 133 -7 7 -35 -22 -86 -88z m68 44 c-8
-23 -26 -56 -40 -75 l-25 -32 23 -6 c13 -2 41 -6 62 -7 l40 -3 -69 -78 c-37
-43 -70 -75 -73 -73 -2 3 7 24 21 48 13 24 27 53 31 65 6 20 3 22 -39 25 l-46
3 62 88 c34 48 63 87 65 87 2 0 -4 -19 -12 -42z"/>
<path d="M787 2450 c-12 -18 -21 -20 -57 -14 l-42 7 17 -33 c16 -31 16 -44 0
-84 -8 -17 -6 -17 23 -2 29 15 31 15 46 -9 22 -33 36 -31 36 4 0 22 7 33 27
43 36 18 39 34 8 42 -20 5 -25 13 -25 36 0 35 -13 39 -33 10z m21 -25 c-4 -20
0 -25 26 -31 l31 -7 -32 -14 c-26 -10 -33 -19 -33 -41 l0 -27 -19 24 c-13 16
-24 21 -38 17 -17 -6 -20 -3 -16 18 3 13 -1 34 -7 46 -13 24 -15 24 33 5 7 -3
22 3 32 15 24 26 28 25 23 -5z"/>
<path d="M4261 2407 c-19 -21 -28 -24 -48 -16 -47 18 -54 13 -36 -26 14 -28
14 -39 4 -61 -15 -34 -8 -41 23 -20 24 15 26 15 42 -14 20 -33 34 -31 34 6 0
18 10 31 37 46 l36 22 -31 14 c-23 11 -32 23 -34 45 l-3 29 -24 -25z m17 -22
c-4 -20 -1 -26 18 -31 31 -8 31 -22 -1 -30 -19 -5 -25 -13 -25 -33 l0 -26 -19
24 c-14 19 -22 21 -37 13 -17 -9 -19 -6 -20 21 0 18 -4 40 -8 50 -7 15 -5 16
20 7 23 -9 31 -8 48 10 26 26 29 25 24 -5z"/>
<path d="M3553 2316 l-32 -35 -42 14 c-23 9 -44 14 -46 12 -2 -2 5 -23 16 -47
l19 -43 -24 -32 c-13 -18 -24 -35 -24 -40 0 -7 40 -3 91 10 24 6 28 3 43 -35
19 -49 25 -46 46 18 12 39 20 48 48 56 43 12 41 23 -8 37 -37 11 -40 15 -45
58 -4 25 -8 50 -9 55 -1 4 -16 -8 -33 -28z m27 -40 c0 -41 2 -45 30 -51 36 -8
38 -17 8 -30 -13 -6 -26 -25 -32 -49 l-11 -39 -20 37 c-13 24 -25 35 -35 32
-8 -2 -30 -9 -48 -15 l-33 -10 19 31 c18 28 19 35 6 71 -13 36 -13 39 4 32 44
-19 60 -17 77 9 25 37 35 32 35 -18z"/>
<path d="M3881 2249 c-39 -50 -71 -95 -71 -100 0 -5 23 -9 50 -9 28 0 50 -1
50 -3 0 -2 -20 -39 -45 -83 -25 -43 -45 -82 -45 -87 0 -22 162 138 194 192 12
19 -11 31 -61 31 -24 0 -43 2 -43 5 0 3 11 22 24 43 14 20 28 49 31 63 13 55
-16 37 -84 -52z m65 37 c-9 -21 -25 -51 -37 -67 -12 -17 -20 -31 -18 -33 2 -2
28 -7 58 -12 l55 -9 -69 -77 c-38 -42 -70 -76 -72 -74 -2 1 10 27 27 57 40 73
39 79 -15 79 -25 0 -45 2 -45 5 0 9 123 175 127 171 2 -2 -3 -20 -11 -40z"/>
<path d="M4547 2218 l-25 -33 -46 16 c-25 9 -46 12 -46 7 0 -5 9 -27 20 -49
l21 -40 -26 -30 c-42 -51 -27 -61 48 -35 l38 14 20 -39 c23 -47 35 -43 50 15
9 36 16 45 41 52 40 12 40 25 -2 39 -32 10 -36 16 -44 63 -5 29 -13 52 -17 52
-3 0 -18 -15 -32 -32z m71 -92 l32 -9 -29 -18 c-18 -11 -32 -30 -36 -50 -7
-31 -8 -32 -22 -13 -8 10 -18 25 -22 33 -7 11 -15 11 -45 1 -45 -15 -54 -8
-33 24 15 22 15 28 2 60 -16 38 -11 43 29 25 22 -11 28 -8 53 22 l28 33 5 -49
c5 -46 8 -50 38 -59z"/>
<path d="M778 2181 c-71 -23 -112 -48 -165 -103 -139 -144 -146 -373 -15 -519
35 -40 46 -58 44 -80 -11 -102 118 -150 237 -89 l41 20 0 -38 c0 -55 27 -77
95 -77 47 0 58 4 87 32 l34 33 11 -30 c20 -54 115 -76 191 -44 78 32 129 108
116 174 -6 25 -4 27 24 22 78 -11 152 48 152 122 0 80 -64 125 -160 112 -44
-6 -48 -5 -43 12 2 10 -17 60 -43 113 -40 77 -64 110 -138 184 -157 156 -309
207 -468 156z m194 -12 c126 -26 277 -143 360 -277 l37 -60 -27 10 c-16 6 -40
31 -57 60 -70 117 -195 206 -320 229 -148 27 -321 -54 -376 -176 -43 -94 -7
-281 72 -370 16 -18 16 -22 3 -40 -15 -20 -16 -19 -50 19 -19 22 -47 65 -61
95 -24 49 -28 68 -28 151 0 88 3 101 33 162 48 99 134 166 247 194 65 16 102
17 167 3z m-204 -98 c10 -6 5 -11 -17 -21 -41 -17 -111 -112 -111 -151 0 -7
12 10 26 39 44 88 145 139 258 129 110 -10 217 -81 271 -181 18 -33 18 -34 -3
-77 -14 -28 -22 -37 -22 -24 0 37 -46 120 -85 154 -53 46 -100 64 -170 64 -93
0 -183 -58 -201 -129 -12 -46 1 -150 21 -179 11 -15 28 -41 37 -57 l18 -28
-30 0 c-20 0 -35 8 -50 30 -35 49 -61 117 -69 183 l-8 62 -2 -65 c-1 -70 19
-127 64 -186 22 -28 23 -33 9 -45 -13 -11 -19 -8 -40 17 -46 54 -66 113 -71
209 -5 84 -3 93 24 144 19 37 44 65 77 88 52 36 55 37 74 24z m253 -109 c37
-19 64 -43 87 -76 17 -27 32 -52 32 -57 0 -14 -40 13 -72 47 -80 90 -220 85
-279 -8 -16 -26 -19 -45 -16 -88 2 -30 0 -66 -5 -80 l-10 -25 -14 28 c-21 39
-28 115 -15 162 29 110 175 158 292 97z m-34 -43 c28 -10 83 -57 83 -70 0 -4
-9 -9 -20 -12 -13 -3 -24 1 -30 14 -13 23 -61 49 -92 49 -17 -1 -12 -5 17 -15
22 -8 48 -24 57 -35 16 -20 16 -23 -2 -53 -11 -18 -20 -40 -20 -49 0 -16 -3
-16 -32 2 -19 12 -51 20 -75 20 -40 0 -43 2 -43 26 0 16 13 39 34 60 19 19 30
34 24 34 -5 0 -23 -14 -40 -30 -24 -25 -29 -37 -26 -65 4 -33 -5 -45 -33 -45
-15 0 -10 63 9 100 34 68 115 97 189 69z m350 -98 c55 -26 77 -60 68 -107 -6
-36 -6 -36 22 -28 15 5 51 9 80 9 68 0 103 -30 103 -87 0 -50 -13 -74 -52 -94
-31 -16 -104 -16 -141 1 -17 7 -17 5 2 -26 27 -45 26 -76 -4 -121 -31 -46 -97
-78 -161 -78 -60 0 -88 18 -104 65 -13 40 -26 45 -35 14 -17 -52 -126 -78
-165 -39 -22 22 -25 46 -10 86 14 36 5 42 -23 16 -52 -49 -150 -67 -207 -37
-55 28 -66 88 -27 146 27 40 60 59 105 59 l33 0 -20 26 c-29 37 -26 70 8 105
37 37 81 38 136 4 51 -31 55 -31 55 4 0 15 9 40 21 55 39 49 123 25 144 -41 9
-33 22 -28 29 12 7 38 47 75 80 75 11 0 40 -9 63 -19z"/>
<path d="M1611 2067 c-19 -21 -28 -24 -48 -16 -47 18 -54 13 -36 -26 14 -28
14 -39 4 -61 -15 -34 -12 -37 21 -20 25 13 28 12 43 -10 21 -33 32 -30 39 11
4 19 13 35 20 35 6 0 21 7 32 14 18 14 18 15 -13 26 -25 9 -33 18 -35 42 l-3
30 -24 -25z m17 -22 c-4 -20 0 -25 26 -31 l31 -7 -32 -15 c-25 -12 -33 -22
-33 -41 l0 -26 -20 25 c-16 21 -22 23 -38 14 -16 -11 -18 -9 -14 16 2 15 -1
37 -7 49 -11 20 -10 20 16 10 22 -8 30 -6 47 11 26 26 29 25 24 -5z"/>
<path d="M3181 1947 c-39 -51 -71 -96 -71 -100 0 -4 23 -7 50 -7 28 0 50 -2
50 -4 0 -2 -21 -41 -46 -86 -25 -45 -43 -84 -39 -88 8 -8 195 187 195 204 0
14 -32 24 -77 24 l-32 0 30 56 c16 31 29 62 29 69 0 36 -24 17 -89 -68z m59
24 c-12 -28 -28 -56 -36 -62 -24 -20 -16 -27 41 -34 30 -4 55 -10 55 -14 -1
-3 -32 -40 -71 -81 l-70 -75 35 72 36 72 -51 3 -50 3 63 87 c35 47 64 85 66
83 2 -2 -6 -26 -18 -54z"/>
<path d="M2425 1984 l-6 -36 -27 23 c-21 19 -23 19 -9 3 23 -28 22 -32 -10
-37 -26 -4 -26 -4 5 -6 17 0 32 -5 32 -11 0 -5 -3 -10 -7 -10 -5 0 -19 -10
-33 -21 l-25 -20 33 16 32 16 1 -33 c1 -20 3 -25 6 -13 10 47 12 49 33 30 22
-20 28 -7 8 14 -11 11 -7 13 19 9 18 -2 30 -1 27 4 -3 4 -14 8 -25 8 -23 0
-25 15 -3 24 9 4 14 9 11 12 -3 3 -17 -2 -32 -12 l-27 -17 7 46 c8 55 0 64
-10 11z"/>
<path d="M2050 1955 c-23 -23 -29 -24 -58 -14 -42 15 -47 8 -27 -31 14 -26 15
-38 6 -58 -15 -31 -9 -37 20 -21 20 10 25 9 44 -15 24 -30 35 -25 35 14 0 21
7 31 30 40 36 15 38 27 6 40 -18 6 -26 18 -28 40 l-3 31 -25 -26z m16 -27 c-1
-17 5 -24 22 -26 30 -4 28 -20 -3 -28 -18 -4 -25 -13 -25 -30 0 -21 -20 -37
-20 -16 0 4 -4 13 -9 21 -7 10 -13 11 -30 2 -20 -11 -21 -10 -15 13 3 13 0 34
-6 46 -11 21 -10 22 18 16 20 -5 33 -2 42 9 18 21 28 19 26 -7z"/>
<path d="M2690 1927 c0 -7 -19 -23 -42 -36 -40 -21 -41 -22 -11 -16 25 5 34 2
48 -17 l17 -23 -5 23 c-5 20 -2 22 16 16 18 -5 20 -4 9 7 -10 11 -8 16 10 26
22 13 22 13 -6 7 -25 -6 -28 -4 -23 10 4 9 2 16 -3 16 -6 0 -10 -6 -10 -13z"/>
<path d="M2618 1903 c7 -3 16 -2 19 1 4 3 -2 6 -13 5 -11 0 -14 -3 -6 -6z"/>
<path d="M2652 1850 c-18 -29 -15 -38 4 -12 9 13 14 25 12 27 -2 2 -9 -5 -16
-15z"/>
<path d="M2544 1764 l-6 -35 -26 23 -25 23 18 -27 17 -28 -28 -1 c-20 -1 -23
-3 -9 -6 48 -10 50 -14 17 -35 -17 -11 -32 -22 -32 -25 0 -3 11 2 25 11 32 21
33 21 38 -11 l4 -28 2 28 c1 33 14 35 35 5 18 -26 21 -17 5 14 -10 19 -9 20
19 16 17 -2 29 -1 26 4 -3 4 -14 8 -25 8 -23 0 -25 15 -3 24 9 4 14 9 11 12
-3 3 -17 -2 -32 -12 l-27 -17 7 46 c8 55 -1 64 -11 11z"/>
<path d="M3812 1780 c-21 -13 -40 -36 -49 -60 -15 -37 -17 -38 -37 -25 -25 18
-95 19 -131 3 -15 -7 -33 -24 -41 -39 -16 -32 -19 -95 -4 -104 20 -12 9 -24
-30 -35 -75 -20 -134 -93 -123 -152 3 -14 18 -38 34 -53 48 -47 128 -44 252
10 15 6 17 1 17 -34 0 -49 24 -77 73 -86 38 -7 99 14 134 47 l23 21 20 -26
c75 -96 300 -23 300 97 0 24 3 26 48 26 56 0 104 26 132 72 59 97 -22 207
-152 208 l-56 0 1 34 c2 63 -58 116 -130 116 -32 0 -113 -37 -120 -56 -3 -9
-15 -3 -38 21 -38 41 -73 45 -123 15z m92 -11 c13 -7 30 -25 37 -41 l12 -29
31 29 c42 40 68 52 111 52 79 0 130 -59 105 -120 -16 -38 -12 -42 31 -30 37
11 90 5 129 -15 86 -44 92 -167 10 -210 -41 -21 -119 -20 -136 2 -17 24 -32 8
-16 -17 7 -11 12 -34 12 -51 0 -57 -91 -119 -175 -119 -41 0 -95 30 -108 59
-6 14 -12 27 -13 29 -1 2 -20 -15 -41 -38 -91 -98 -218 -42 -173 75 6 15 7 25
3 23 -127 -63 -141 -68 -186 -68 -104 0 -143 56 -98 140 22 41 89 80 138 80
l34 0 -27 24 c-34 28 -38 84 -10 115 45 50 145 47 168 -5 13 -29 28 -22 28 14
0 35 34 90 63 102 30 12 42 12 71 -1z"/>
<path d="M1963 1433 c-53 -64 -103 -134 -103 -145 0 -4 23 -8 51 -8 l50 0 -47
-86 c-25 -47 -44 -87 -42 -90 3 -2 42 33 86 78 125 126 134 148 67 148 -18 0
-40 3 -49 6 -14 5 -14 9 2 33 61 87 48 140 -15 64z m33 -7 c-9 -21 -25 -50
-36 -66 -27 -38 -26 -40 18 -41 82 -1 82 -9 3 -90 -71 -72 -72 -73 -48 -29 14
25 28 55 32 68 6 19 3 22 -24 22 -64 0 -64 6 1 96 34 46 63 82 65 80 2 -2 -3
-20 -11 -40z"/>
<path d="M2560 1455 c-22 -22 -29 -24 -60 -15 -18 5 -36 8 -38 5 -3 -3 3 -20
13 -39 18 -32 18 -36 2 -60 -19 -28 -9 -33 25 -15 18 10 24 8 41 -15 22 -31
37 -26 37 13 0 22 7 31 30 41 36 15 38 28 6 36 -20 5 -26 13 -28 40 l-3 35
-25 -26z m30 -55 c30 0 34 -19 5 -26 -18 -4 -25 -13 -25 -30 0 -29 -11 -31
-28 -4 -10 16 -17 18 -31 11 -15 -9 -18 -6 -18 17 0 15 -3 35 -7 44 -7 15 -4
17 21 12 21 -4 33 -1 44 12 13 16 14 15 17 -9 2 -19 9 -27 22 -27z"/>
<path d="M3036 1359 l-26 -31 -47 16 c-25 9 -47 15 -49 13 -1 -1 9 -22 23 -47
23 -43 24 -42 9 7 -7 22 -6 22 26 8 32 -13 34 -12 66 18 l32 31 0 -46 c0 -43
2 -47 33 -58 l32 -11 -25 -14 c-15 -8 -29 -28 -36 -51 l-10 -37 -23 36 c-22
36 -22 36 -56 21 -50 -21 -60 -18 -40 12 24 36 12 41 -14 6 -38 -53 -27 -62
44 -37 22 8 41 15 42 15 2 0 12 -19 24 -42 l21 -42 14 25 c7 13 13 34 14 47 0
17 11 27 43 41 l42 19 -37 16 c-21 9 -42 16 -48 16 -5 0 -9 3 -9 8 5 27 -3 92
-10 92 -5 0 -21 -14 -35 -31z"/>
<path d="M1469 1299 c-14 -44 -5 -71 24 -77 28 -6 38 31 20 77 -9 22 -20 41
-24 41 -5 0 -14 -18 -20 -41z m41 -41 c0 -19 -25 -25 -35 -8 -3 5 -3 21 1 36
7 26 8 26 20 9 8 -11 14 -27 14 -37z"/>
<path d="M1094 1234 c-14 -32 -13 -38 1 -61 17 -26 33 -26 49 -1 11 18 -10 98
-26 98 -5 0 -16 -16 -24 -36z m35 -41 c1 -13 -4 -23 -9 -23 -16 0 -23 27 -15
58 7 25 8 25 15 7 5 -11 9 -30 9 -42z"/>
<path d="M914 1214 c-19 -45 -7 -84 26 -84 28 0 35 24 20 71 -18 54 -28 57
-46 13z m36 -41 c0 -14 -6 -23 -15 -23 -15 0 -22 50 -8 63 9 10 23 -14 23 -40z"/>
<path d="M1299 1193 c-16 -42 -8 -77 19 -81 30 -5 38 20 22 69 -15 46 -27 49
-41 12z m32 -66 c-19 -19 -34 7 -25 45 l7 33 14 -34 c10 -24 11 -37 4 -44z"/>
<path d="M3887 1154 c-28 -58 -2 -99 42 -68 25 18 26 35 6 74 -20 39 -28 38
-48 -6z m39 -9 c8 -32 -1 -55 -21 -55 -9 0 -15 9 -15 24 0 54 25 75 36 31z"/>
<path d="M2335 1130 c-3 -25 -5 -63 -2 -85 3 -35 4 -33 5 15 3 88 14 90 55 12
21 -39 37 -72 37 -75 0 -3 -21 -8 -46 -12 -43 -6 -51 -4 -113 37 -36 25 -74
47 -84 51 -32 12 -30 -21 7 -94 l37 -72 -38 7 c-21 3 -62 9 -92 13 -50 6 -53
5 -43 -13 5 -10 28 -40 51 -66 23 -25 41 -48 41 -51 0 -3 -24 -9 -53 -12 -56
-7 -86 -19 -75 -30 3 -4 38 -23 78 -44 l71 -38 -61 -37 c-34 -21 -59 -40 -56
-43 2 -3 30 12 61 32 32 20 58 35 59 33 8 -13 26 -61 26 -69 0 -7 -31 -10 -85
-8 -46 2 -87 0 -91 -4 -4 -4 32 -7 80 -7 l87 0 -12 -22 c-6 -13 -27 -42 -46
-66 -20 -24 -33 -45 -30 -48 3 -3 45 8 93 24 49 17 90 29 90 29 1 -1 -4 -33
-11 -72 -8 -38 -12 -71 -10 -73 13 -13 125 95 125 120 0 6 -23 -14 -51 -45
-28 -32 -53 -56 -56 -53 -3 3 16 125 21 133 1 1 22 -4 46 -11 42 -12 48 -18
86 -91 23 -42 44 -73 48 -67 3 5 12 36 19 67 l13 57 39 -53 c22 -29 44 -53 50
-53 13 -1 22 45 24 112 0 28 3 52 5 52 2 0 33 -14 70 -31 97 -45 106 -38 51
44 -25 37 -45 70 -45 72 0 3 36 5 79 5 44 0 82 4 85 9 3 4 -24 25 -60 46 l-66
39 79 40 c75 39 77 40 48 47 -16 4 -50 7 -75 8 -38 1 -97 20 -64 21 18 0 134
88 134 101 0 12 -86 7 -162 -8 l-31 -6 47 86 c26 48 46 87 43 87 -14 0 -88
-36 -133 -65 -29 -19 -55 -31 -58 -28 -3 4 -6 46 -6 95 0 50 -4 88 -10 88 -5
0 -28 -27 -50 -60 -48 -70 -46 -80 3 -15 32 42 35 43 41 22 3 -12 6 -48 6 -79
l0 -58 -26 10 c-14 6 -37 10 -51 10 -21 0 -24 4 -20 23 5 20 5 20 -7 5 -11
-15 -16 -11 -41 41 -15 33 -38 72 -50 88 l-23 28 -7 -45z m-75 -116 c34 -25
60 -46 58 -48 -1 -1 -20 -14 -40 -29 l-37 -27 -30 62 c-51 102 -43 110 49 42z
m443 -42 c-21 -40 -40 -72 -43 -72 -15 1 -71 63 -63 71 12 12 137 79 141 75 1
-2 -14 -35 -35 -74z m-147 -22 c158 -68 201 -269 85 -393 -56 -61 -120 -80
-225 -67 -164 21 -233 98 -224 250 3 53 10 77 34 116 66 108 206 147 330 94z
m-393 -45 c37 -4 67 -8 67 -10 0 -9 -53 -95 -59 -95 -6 0 -45 45 -91 104 -13
18 -13 19 1 14 8 -3 46 -9 82 -13z m677 -9 c0 -6 -111 -86 -120 -86 -3 0 -14
16 -23 35 -18 37 -17 38 28 48 27 6 115 8 115 3z m-668 -153 c-2 -27 -6 -50
-8 -52 -1 -2 -28 11 -59 29 -31 18 -53 35 -50 39 4 3 30 11 58 17 29 6 55 12
58 13 4 0 4 -20 1 -46z m683 24 c5 -2 -20 -18 -55 -35 -35 -18 -64 -31 -65
-30 -1 2 -5 21 -7 44 l-6 40 62 -8 c33 -4 65 -10 71 -11z m-64 -114 c27 -14
49 -30 49 -35 0 -4 -29 -8 -65 -8 l-65 0 6 28 c12 51 11 51 75 15z m-35 -155
c18 -34 10 -35 -61 -3 l-56 24 27 35 28 35 24 -32 c13 -18 30 -44 38 -59z
m-503 38 l38 -34 -68 -22 c-37 -12 -73 -23 -80 -25 -6 -2 5 23 25 55 20 33 39
59 42 59 3 0 22 -15 43 -33z m362 -100 c-4 -36 -11 -66 -15 -66 -5 0 -24 21
-43 48 l-36 47 47 21 c26 12 49 20 50 18 2 -1 1 -32 -3 -68z m-112 12 c-3 -13
-10 -41 -15 -63 l-10 -40 -29 55 c-15 30 -28 58 -29 63 0 4 20 7 44 7 41 0 44
-2 39 -22z"/>
<path d="M1440 1090 c-10 -32 -11 -42 0 -55 14 -17 46 -20 55 -4 9 14 -17 99
-31 99 -6 0 -17 -18 -24 -40z m34 -6 c10 -27 7 -56 -6 -52 -15 5 -24 68 -10
68 6 0 13 -7 16 -16z"/>
<path d="M4066 1080 c-17 -43 -14 -65 11 -74 20 -8 53 21 53 46 0 21 -28 68
-40 68 -4 0 -15 -18 -24 -40z m42 -33 c-4 -30 -38 -36 -38 -7 0 12 5 31 11 42
10 19 12 20 21 4 5 -9 8 -27 6 -39z"/>
<path d="M3735 1071 c-19 -43 -15 -68 11 -78 24 -9 56 33 48 61 -3 12 -14 29
-23 39 -17 17 -18 16 -36 -22z m45 -33 c0 -22 -27 -35 -42 -20 -8 8 -7 20 2
43 13 29 14 30 27 13 7 -10 13 -26 13 -36z"/>
<path d="M1040 1029 c-15 -44 -7 -71 23 -77 28 -6 38 31 20 77 -9 22 -19 41
-23 41 -4 0 -13 -18 -20 -41z m40 -41 c0 -21 -25 -24 -33 -4 -3 8 -3 24 0 37
6 21 7 21 20 4 7 -11 13 -27 13 -37z"/>
<path d="M1214 984 c-25 -59 11 -112 46 -69 11 13 10 23 0 56 -18 54 -28 57
-46 13z m36 -41 c0 -14 -6 -23 -15 -23 -15 0 -22 50 -8 63 9 10 23 -14 23 -40z"/>
<path d="M3906 941 c-21 -40 -18 -85 7 -89 45 -9 63 56 28 99 l-18 23 -17 -33z
m44 -37 c0 -18 -30 -45 -41 -39 -12 8 -11 29 3 60 11 25 13 26 25 9 7 -10 13
-23 13 -30z"/>
<path d="M1380 940 c-6 -12 -10 -35 -8 -53 2 -24 8 -33 26 -35 30 -5 38 20 22
69 -15 44 -24 48 -40 19z m31 -73 c-23 -23 -40 18 -24 59 6 15 9 13 21 -15 8
-22 10 -37 3 -44z"/>
<path d="M3076 911 c-17 -18 -26 -21 -63 -15 l-44 6 17 -36 c14 -29 15 -40 5
-62 -15 -34 -12 -37 23 -18 16 8 29 13 30 12 7 -18 25 -43 33 -45 6 -2 14 12
17 32 4 19 13 35 20 35 6 0 21 7 32 14 18 14 18 15 -13 26 -25 9 -33 18 -35
42 l-3 30 -19 -21z m12 -26 c-4 -20 0 -25 26 -31 l31 -7 -32 -15 c-25 -12 -33
-22 -33 -41 l0 -26 -19 24 c-12 16 -24 22 -35 18 -12 -5 -16 0 -16 19 0 14 -5
35 -11 46 -12 22 -13 22 34 3 7 -3 22 3 32 15 24 26 28 25 23 -5z"/>
<path d="M3539 828 l-25 -32 -43 18 c-24 9 -45 15 -48 13 -2 -3 6 -25 18 -50
l22 -45 -27 -35 c-15 -19 -23 -38 -18 -41 5 -3 32 1 58 9 27 8 49 15 50 15 1
0 9 -18 19 -40 10 -22 21 -40 26 -40 4 0 13 23 20 50 12 46 16 51 51 62 43 13
40 20 -14 38 -34 10 -38 15 -38 45 0 36 -8 65 -19 65 -3 0 -18 -14 -32 -32z
m36 -41 c5 -31 12 -40 37 -49 l31 -11 -26 -14 c-15 -7 -30 -26 -33 -41 -11
-44 -15 -45 -36 -10 -11 18 -21 34 -23 36 -1 1 -19 -5 -40 -13 -45 -20 -52
-15 -29 19 15 24 15 30 2 66 l-16 38 38 -13 c37 -13 38 -13 61 18 12 17 24 27
25 22 1 -6 5 -27 9 -48z"/>
<path d="M1734 815 l-30 -37 -42 17 c-24 10 -45 15 -48 12 -3 -2 5 -25 17 -50
l22 -45 -27 -34 c-14 -19 -23 -37 -20 -40 5 -5 38 1 91 17 19 6 25 1 39 -34 9
-23 20 -41 24 -41 5 0 14 22 21 50 11 43 17 51 46 61 44 14 42 26 -7 40 -38
12 -40 14 -40 53 0 65 -12 73 -46 31z m69 -95 l32 -12 -27 -10 c-20 -7 -29
-18 -34 -44 -9 -47 -18 -49 -38 -8 -13 27 -21 34 -34 29 -32 -13 -72 -24 -72
-19 0 3 7 16 16 30 15 23 15 28 1 65 -15 38 -15 40 1 34 41 -18 58 -16 82 10
l25 27 8 -45 c8 -39 14 -47 40 -57z"/>
</g>
</svg>
